<svg width="33" height="27" viewBox="0 0 33 27" fill="none" xmlns="http://www.w3.org/2000/svg">
<path fill-rule="evenodd" clip-rule="evenodd" d="M0.90625 1.93158C0.90625 1.36747 1.36356 0.910156 1.92768 0.910156H6.03129C6.58512 0.910156 7.08316 1.24734 7.28885 1.76157L8.54671 4.90622H30.4349C32.0977 4.90622 33.2361 6.58364 32.622 8.12883L29.1012 16.988C28.8963 17.5037 28.3975 17.8422 27.8426 17.8422H12.5767L12.3003 17.8383C11.7545 17.8307 11.3081 18.271 11.3081 18.8168C11.3081 19.3573 11.7462 19.7954 12.2866 19.7954H28.0686C28.6327 19.7954 29.09 20.2527 29.09 20.8168C29.09 21.3809 28.6327 21.8382 28.0686 21.8382H25.6685C26.4678 22.3279 27.0011 23.2094 27.0011 24.2154C27.0011 25.7539 25.7539 27.0011 24.2154 27.0011C22.6769 27.0011 21.4297 25.7539 21.4297 24.2154C21.4297 23.2094 21.963 22.3279 22.7623 21.8382H17.313C18.1124 22.3279 18.6456 23.2094 18.6456 24.2154C18.6456 25.7539 17.3984 27.0011 15.8599 27.0011C14.3214 27.0011 13.0742 25.7539 13.0742 24.2154C13.0742 23.2094 13.6075 22.3279 14.4068 21.8382H12.2866C10.6179 21.8382 9.26521 20.4855 9.26521 18.8168C9.26521 17.5582 10.0342 16.4812 11.1255 16.0265L6.9123 6.32077L5.5652 2.95301H1.92768C1.36356 2.95301 0.90625 2.4957 0.90625 1.93158ZM13.254 15.7993H27.3754L30.7235 7.37437C30.8046 7.17045 30.6544 6.94907 30.4349 6.94907H9.41208L13.254 15.7993ZM14.3421 24.2154C14.3421 25.0537 15.0216 25.7333 15.8599 25.7333C16.6982 25.7333 17.3778 25.0537 17.3778 24.2154C17.3778 23.3771 16.6982 22.6975 15.8599 22.6975C15.0216 22.6975 14.3421 23.3771 14.3421 24.2154ZM24.2154 25.7333C23.3771 25.7333 22.6975 25.0537 22.6975 24.2154C22.6975 23.3771 23.3771 22.6975 24.2154 22.6975C25.0537 22.6975 25.7333 23.3771 25.7333 24.2154C25.7333 25.0537 25.0537 25.7333 24.2154 25.7333Z" fill="white"/>
</svg>
