<svg width="119" height="29" viewBox="0 0 119 29" fill="none" xmlns="http://www.w3.org/2000/svg">
<g clip-path="url(#clip0_8031_12736)">
<path d="M25.682 23.249C25.9129 23.249 26.1134 23.2202 26.2836 23.1624C26.4567 23.1047 26.598 23.0257 26.7073 22.9255C26.8197 22.8222 26.9033 22.7007 26.958 22.5609C27.0127 22.4212 27.04 22.2678 27.04 22.1007C27.04 21.7665 26.9291 21.5098 26.7073 21.3306C26.4886 21.1513 26.1529 21.0617 25.7003 21.0617H24.9165V23.249H25.682ZM28.8354 26.7031H27.7281C27.5185 26.7031 27.3666 26.6211 27.2724 26.4571L25.8871 24.3472C25.8355 24.2682 25.7777 24.212 25.7139 24.1786C25.6532 24.1452 25.562 24.1285 25.4405 24.1285H24.9165V26.7031H23.6907V20.1139H25.7003C26.1468 20.1139 26.5296 20.161 26.8486 20.2551C27.1706 20.3463 27.4334 20.4754 27.6369 20.6425C27.8435 20.8096 27.9954 21.0101 28.0926 21.244C28.1898 21.4749 28.2385 21.7301 28.2385 22.0095C28.2385 22.2313 28.205 22.4409 28.1382 22.6384C28.0744 22.8359 27.9802 23.0151 27.8557 23.1761C27.7342 23.3371 27.5823 23.4784 27.4 23.5999C27.2207 23.7214 27.0157 23.8171 26.7848 23.887C26.8638 23.9325 26.9367 23.9872 27.0035 24.051C27.0704 24.1118 27.1311 24.1847 27.1858 24.2698L28.8354 26.7031ZM32.0788 23.8277C32.0788 23.6819 32.0575 23.5452 32.015 23.4176C31.9755 23.287 31.9147 23.1731 31.8327 23.0759C31.7507 22.9786 31.6459 22.9027 31.5183 22.848C31.3937 22.7903 31.2479 22.7614 31.0808 22.7614C30.7557 22.7614 30.499 22.8541 30.3107 23.0394C30.1254 23.2247 30.0069 23.4875 29.9553 23.8277H32.0788ZM29.9325 24.5067C29.9507 24.7467 29.9932 24.9548 30.0601 25.131C30.1269 25.3042 30.215 25.4485 30.3244 25.5639C30.4337 25.6763 30.5628 25.7614 30.7117 25.8191C30.8636 25.8738 31.0307 25.9011 31.213 25.9011C31.3952 25.9011 31.5517 25.8798 31.6823 25.8373C31.816 25.7948 31.9314 25.7477 32.0286 25.6961C32.1289 25.6444 32.2155 25.5973 32.2884 25.5548C32.3643 25.5123 32.4372 25.491 32.5071 25.491C32.6013 25.491 32.6712 25.5259 32.7167 25.5958L33.0403 26.0059C32.9157 26.1517 32.776 26.2748 32.621 26.375C32.4661 26.4722 32.3036 26.5512 32.1334 26.612C31.9664 26.6697 31.7947 26.7107 31.6185 26.735C31.4454 26.7593 31.2768 26.7715 31.1127 26.7715C30.7876 26.7715 30.4854 26.7183 30.2059 26.612C29.9264 26.5026 29.6834 26.3431 29.4768 26.1335C29.2702 25.9209 29.1077 25.6596 28.9892 25.3497C28.8707 25.0368 28.8115 24.6753 28.8115 24.2652C28.8115 23.9462 28.8631 23.647 28.9664 23.3675C29.0697 23.085 29.217 22.8404 29.4084 22.6338C29.6029 22.4242 29.8383 22.2587 30.1147 22.1371C30.3942 22.0156 30.7087 21.9549 31.058 21.9549C31.3527 21.9549 31.6246 22.0019 31.8737 22.0961C32.1228 22.1903 32.337 22.3285 32.5162 22.5108C32.6955 22.69 32.8352 22.9118 32.9355 23.1761C33.0387 23.4374 33.0904 23.7366 33.0904 24.0738C33.0904 24.2439 33.0722 24.3594 33.0357 24.4201C32.9993 24.4778 32.9294 24.5067 32.8261 24.5067H29.9325ZM37.2844 23.0166C37.2509 23.0591 37.2175 23.0926 37.1841 23.1169C37.1537 23.1412 37.1082 23.1533 37.0474 23.1533C36.9897 23.1533 36.9335 23.1366 36.8788 23.1032C36.8241 23.0667 36.7588 23.0272 36.6828 22.9847C36.6069 22.9391 36.5158 22.8997 36.4094 22.8662C36.3061 22.8298 36.177 22.8116 36.0221 22.8116C35.8246 22.8116 35.6515 22.848 35.5026 22.9209C35.3538 22.9908 35.2292 23.0926 35.1289 23.2262C35.0317 23.3599 34.9588 23.5224 34.9102 23.7138C34.8616 23.9022 34.8373 24.1163 34.8373 24.3563C34.8373 24.6054 34.8631 24.8272 34.9148 25.0216C34.9695 25.2161 35.0469 25.3801 35.1472 25.5138C35.2474 25.6444 35.3689 25.7447 35.5117 25.8145C35.6545 25.8814 35.8155 25.9148 35.9948 25.9148C36.174 25.9148 36.3183 25.8935 36.4277 25.851C36.5401 25.8054 36.6342 25.7568 36.7102 25.7052C36.7861 25.6505 36.8514 25.6019 36.9061 25.5593C36.9639 25.5138 37.0276 25.491 37.0975 25.491C37.1887 25.491 37.257 25.5259 37.3026 25.5958L37.6261 26.0059C37.5016 26.1517 37.3664 26.2748 37.2206 26.375C37.0747 26.4722 36.9228 26.5512 36.7649 26.612C36.6099 26.6697 36.4489 26.7107 36.2818 26.735C36.1178 26.7593 35.9537 26.7715 35.7897 26.7715C35.5011 26.7715 35.2292 26.7183 34.974 26.612C34.7188 26.5026 34.4955 26.3447 34.3042 26.1381C34.1128 25.9315 33.9609 25.6793 33.8485 25.3816C33.7391 25.0809 33.6844 24.7391 33.6844 24.3563C33.6844 24.013 33.733 23.6956 33.8302 23.4039C33.9305 23.1093 34.0763 22.8556 34.2677 22.6429C34.4591 22.4273 34.696 22.2587 34.9786 22.1371C35.2611 22.0156 35.5862 21.9549 35.9537 21.9549C36.3031 21.9549 36.6084 22.0111 36.8697 22.1235C37.134 22.2359 37.3709 22.3969 37.5805 22.6065L37.2844 23.0166ZM40.3204 21.9549C40.6668 21.9549 40.9812 22.0111 41.2637 22.1235C41.5493 22.2359 41.7923 22.3954 41.9928 22.6019C42.1964 22.8085 42.3528 23.0607 42.4622 23.3584C42.5715 23.6561 42.6262 23.9887 42.6262 24.3563C42.6262 24.727 42.5715 25.0611 42.4622 25.3588C42.3528 25.6566 42.1964 25.9102 41.9928 26.1198C41.7923 26.3295 41.5493 26.4905 41.2637 26.6029C40.9812 26.7153 40.6668 26.7715 40.3204 26.7715C39.9711 26.7715 39.6536 26.7153 39.3681 26.6029C39.0825 26.4905 38.8379 26.3295 38.6344 26.1198C38.4339 25.9102 38.2774 25.6566 38.165 25.3588C38.0557 25.0611 38.001 24.727 38.001 24.3563C38.001 23.9887 38.0557 23.6561 38.165 23.3584C38.2774 23.0607 38.4339 22.8085 38.6344 22.6019C38.8379 22.3954 39.0825 22.2359 39.3681 22.1235C39.6536 22.0111 39.9711 21.9549 40.3204 21.9549ZM40.3204 25.9057C40.7093 25.9057 40.9964 25.775 41.1817 25.5138C41.37 25.2525 41.4642 24.8697 41.4642 24.3654C41.4642 23.8612 41.37 23.4769 41.1817 23.2126C40.9964 22.9483 40.7093 22.8161 40.3204 22.8161C39.9255 22.8161 39.6324 22.9498 39.441 23.2171C39.2526 23.4814 39.1584 23.8642 39.1584 24.3654C39.1584 24.8667 39.2526 25.2495 39.441 25.5138C39.6324 25.775 39.9255 25.9057 40.3204 25.9057ZM45.1581 24.2515C45.2979 24.2515 45.4194 24.2333 45.5227 24.1968C45.626 24.1573 45.711 24.1042 45.7779 24.0374C45.8477 23.9705 45.8994 23.89 45.9328 23.7958C45.9693 23.7017 45.9875 23.5984 45.9875 23.486C45.9875 23.2551 45.9176 23.0728 45.7779 22.9391C45.6412 22.8024 45.4346 22.7341 45.1581 22.7341C44.8817 22.7341 44.6736 22.8024 44.5338 22.9391C44.3971 23.0728 44.3288 23.2551 44.3288 23.486C44.3288 23.5953 44.3455 23.6971 44.3789 23.7913C44.4154 23.8855 44.467 23.9675 44.5338 24.0374C44.6037 24.1042 44.6903 24.1573 44.7936 24.1968C44.8999 24.2333 45.0214 24.2515 45.1581 24.2515ZM46.4295 26.9127C46.4295 26.8216 46.4022 26.7472 46.3475 26.6895C46.2928 26.6317 46.2184 26.5877 46.1242 26.5573C46.03 26.5239 45.9191 26.4996 45.7915 26.4844C45.667 26.4692 45.5333 26.4586 45.3905 26.4525C45.2508 26.4434 45.105 26.4358 44.9531 26.4297C44.8042 26.4236 44.6584 26.4115 44.5156 26.3933C44.3911 26.4631 44.2893 26.5452 44.2103 26.6393C44.1344 26.7335 44.0964 26.8429 44.0964 26.9674C44.0964 27.0494 44.1161 27.1254 44.1556 27.1953C44.1982 27.2682 44.2635 27.3305 44.3516 27.3821C44.4427 27.4337 44.5597 27.4732 44.7025 27.5006C44.8452 27.531 45.0199 27.5461 45.2265 27.5461C45.4361 27.5461 45.6169 27.5294 45.7688 27.496C45.9207 27.4656 46.0452 27.4216 46.1424 27.3639C46.2427 27.3092 46.3156 27.2424 46.3612 27.1634C46.4067 27.0874 46.4295 27.0039 46.4295 26.9127ZM47.5505 22.1873V22.6065C47.5505 22.7402 47.47 22.8222 47.309 22.8526L46.8898 22.93C46.9535 23.091 46.9854 23.2672 46.9854 23.4586C46.9854 23.6895 46.9384 23.8991 46.8442 24.0875C46.753 24.2728 46.6255 24.4308 46.4614 24.5614C46.2974 24.692 46.1029 24.7938 45.8781 24.8667C45.6564 24.9366 45.4164 24.9715 45.1581 24.9715C45.067 24.9715 44.9789 24.967 44.8938 24.9578C44.8088 24.9487 44.7252 24.9366 44.6432 24.9214C44.4974 25.0095 44.4245 25.1082 44.4245 25.2176C44.4245 25.3118 44.467 25.3816 44.5521 25.4272C44.6402 25.4697 44.7556 25.5001 44.8984 25.5183C45.0412 25.5366 45.2037 25.5487 45.386 25.5548C45.5683 25.5578 45.7551 25.5669 45.9465 25.5821C46.1379 25.5973 46.3247 25.6247 46.507 25.6642C46.6893 25.7006 46.8518 25.7599 46.9946 25.8419C47.1373 25.9239 47.2513 26.0363 47.3363 26.1791C47.4244 26.3188 47.4685 26.4996 47.4685 26.7214C47.4685 26.9279 47.4168 27.1284 47.3135 27.3229C47.2133 27.5173 47.066 27.6904 46.8715 27.8423C46.6801 27.9942 46.4432 28.1158 46.1607 28.2069C45.8812 28.3011 45.5622 28.3482 45.2037 28.3482C44.8513 28.3482 44.5445 28.3132 44.2832 28.2433C44.022 28.1765 43.8047 28.0854 43.6316 27.9699C43.4584 27.8575 43.3293 27.7269 43.2443 27.578C43.1592 27.4292 43.1167 27.2743 43.1167 27.1132C43.1167 26.8945 43.182 26.7122 43.3126 26.5664C43.4463 26.4176 43.6285 26.2991 43.8594 26.211C43.7349 26.1472 43.6361 26.0621 43.5632 25.9558C43.4903 25.8495 43.4539 25.7097 43.4539 25.5366C43.4539 25.4667 43.466 25.3953 43.4903 25.3224C43.5177 25.2464 43.5556 25.172 43.6042 25.0991C43.6559 25.0262 43.7197 24.9578 43.7956 24.894C43.8716 24.8272 43.9612 24.768 44.0645 24.7163C43.8275 24.5887 43.6407 24.4186 43.504 24.206C43.3703 23.9933 43.3035 23.7442 43.3035 23.4586C43.3035 23.2277 43.3491 23.0196 43.4402 22.8343C43.5344 22.646 43.6635 22.4865 43.8275 22.3559C43.9946 22.2222 44.1906 22.1204 44.4154 22.0506C44.6432 21.9807 44.8908 21.9457 45.1581 21.9457C45.3586 21.9457 45.547 21.967 45.7232 22.0095C45.8994 22.049 46.0604 22.1083 46.2062 22.1873H47.5505ZM51.1963 23.8277C51.1963 23.6819 51.175 23.5452 51.1325 23.4176C51.093 23.287 51.0322 23.1731 50.9502 23.0759C50.8682 22.9786 50.7634 22.9027 50.6358 22.848C50.5112 22.7903 50.3654 22.7614 50.1983 22.7614C49.8733 22.7614 49.6166 22.8541 49.4282 23.0394C49.2429 23.2247 49.1244 23.4875 49.0728 23.8277H51.1963ZM49.05 24.5067C49.0682 24.7467 49.1108 24.9548 49.1776 25.131C49.2444 25.3042 49.3325 25.4485 49.4419 25.5639C49.5513 25.6763 49.6804 25.7614 49.8292 25.8191C49.9811 25.8738 50.1482 25.9011 50.3305 25.9011C50.5128 25.9011 50.6692 25.8798 50.7998 25.8373C50.9335 25.7948 51.0489 25.7477 51.1462 25.6961C51.2464 25.6444 51.333 25.5973 51.4059 25.5548C51.4819 25.5123 51.5548 25.491 51.6246 25.491C51.7188 25.491 51.7887 25.5259 51.8343 25.5958L52.1578 26.0059C52.0332 26.1517 51.8935 26.2748 51.7386 26.375C51.5836 26.4722 51.4211 26.5512 51.251 26.612C51.0839 26.6697 50.9122 26.7107 50.736 26.735C50.5629 26.7593 50.3943 26.7715 50.2302 26.7715C49.9052 26.7715 49.6029 26.7183 49.3234 26.612C49.0439 26.5026 48.8009 26.3431 48.5943 26.1335C48.3877 25.9209 48.2252 25.6596 48.1067 25.3497C47.9882 25.0368 47.929 24.6753 47.929 24.2652C47.929 23.9462 47.9807 23.647 48.0839 23.3675C48.1872 23.085 48.3346 22.8404 48.526 22.6338C48.7204 22.4242 48.9558 22.2587 49.2323 22.1371C49.5118 22.0156 49.8262 21.9549 50.1755 21.9549C50.4702 21.9549 50.7421 22.0019 50.9912 22.0961C51.2403 22.1903 51.4545 22.3285 51.6337 22.5108C51.813 22.69 51.9527 22.9118 52.053 23.1761C52.1563 23.4374 52.2079 23.7366 52.2079 24.0738C52.2079 24.2439 52.1897 24.3594 52.1532 24.4201C52.1168 24.4778 52.0469 24.5067 51.9436 24.5067H49.05ZM58.2808 23.8277C58.2808 23.6819 58.2595 23.5452 58.217 23.4176C58.1775 23.287 58.1168 23.1731 58.0347 23.0759C57.9527 22.9786 57.8479 22.9027 57.7203 22.848C57.5958 22.7903 57.4499 22.7614 57.2829 22.7614C56.9578 22.7614 56.7011 22.8541 56.5127 23.0394C56.3274 23.2247 56.2089 23.4875 56.1573 23.8277H58.2808ZM56.1345 24.5067C56.1527 24.7467 56.1953 24.9548 56.2621 25.131C56.3289 25.3042 56.417 25.4485 56.5264 25.5639C56.6358 25.6763 56.7649 25.7614 56.9137 25.8191C57.0656 25.8738 57.2327 25.9011 57.415 25.9011C57.5973 25.9011 57.7537 25.8798 57.8844 25.8373C58.018 25.7948 58.1335 25.7477 58.2307 25.6961C58.3309 25.6444 58.4175 25.5973 58.4904 25.5548C58.5664 25.5123 58.6393 25.491 58.7092 25.491C58.8033 25.491 58.8732 25.5259 58.9188 25.5958L59.2423 26.0059C59.1178 26.1517 58.978 26.2748 58.8231 26.375C58.6681 26.4722 58.5056 26.5512 58.3355 26.612C58.1684 26.6697 57.9968 26.7107 57.8206 26.735C57.6474 26.7593 57.4788 26.7715 57.3147 26.7715C56.9897 26.7715 56.6874 26.7183 56.4079 26.612C56.1284 26.5026 55.8854 26.3431 55.6788 26.1335C55.4723 25.9209 55.3097 25.6596 55.1912 25.3497C55.0728 25.0368 55.0135 24.6753 55.0135 24.2652C55.0135 23.9462 55.0652 23.647 55.1685 23.3675C55.2717 23.085 55.4191 22.8404 55.6105 22.6338C55.8049 22.4242 56.0403 22.2587 56.3168 22.1371C56.5963 22.0156 56.9107 21.9549 57.2601 21.9549C57.5547 21.9549 57.8266 22.0019 58.0757 22.0961C58.3249 22.1903 58.539 22.3285 58.7183 22.5108C58.8975 22.69 59.0372 22.9118 59.1375 23.1761C59.2408 23.4374 59.2924 23.7366 59.2924 24.0738C59.2924 24.2439 59.2742 24.3594 59.2378 24.4201C59.2013 24.4778 59.1314 24.5067 59.0281 24.5067H56.1345ZM61.1897 22.6019C61.2839 22.5078 61.3826 22.4212 61.4859 22.3422C61.5923 22.2602 61.7031 22.1918 61.8186 22.1371C61.9371 22.0794 62.0631 22.0354 62.1968 22.005C62.3305 21.9716 62.4763 21.9549 62.6343 21.9549C62.8894 21.9549 63.1158 21.9989 63.3132 22.087C63.5107 22.1721 63.6747 22.2936 63.8054 22.4516C63.939 22.6065 64.0393 22.7933 64.1061 23.0121C64.176 23.2277 64.2109 23.4662 64.2109 23.7275V26.7031H63.0854V23.7275C63.0854 23.4419 63.0201 23.2217 62.8894 23.0667C62.7588 22.9088 62.5598 22.8298 62.2925 22.8298C62.0981 22.8298 61.9158 22.8738 61.7457 22.9619C61.5755 23.05 61.4145 23.17 61.2626 23.3219V26.7031H60.1371V22.0278H60.8252C60.971 22.0278 61.0667 22.0961 61.1123 22.2328L61.1897 22.6019ZM72.2139 26.7031H71.0883V22.8708H68.9193V25.4044C68.9193 25.5502 68.9542 25.6642 69.0241 25.7462C69.097 25.8282 69.1957 25.8692 69.3203 25.8692C69.3901 25.8692 69.4479 25.8616 69.4934 25.8464C69.542 25.8282 69.5831 25.81 69.6165 25.7917C69.6529 25.7735 69.6848 25.7568 69.7122 25.7416C69.7395 25.7234 69.7668 25.7143 69.7942 25.7143C69.8276 25.7143 69.8549 25.7234 69.8762 25.7416C69.8975 25.7568 69.9203 25.7811 69.9446 25.8145L70.2818 26.3614C70.1177 26.4981 69.9294 26.6014 69.7167 26.6712C69.5041 26.7411 69.2838 26.776 69.056 26.776C68.6489 26.776 68.336 26.6621 68.1173 26.4343C67.9016 26.2034 67.7937 25.8859 67.7937 25.4819V22.8708H67.3152C67.2545 22.8708 67.2028 22.851 67.1603 22.8116C67.1178 22.7721 67.0965 22.7128 67.0965 22.6338V22.1873L67.8484 22.0597L68.0854 20.7883C68.1005 20.7275 68.1294 20.6805 68.1719 20.647C68.2145 20.6136 68.2692 20.5969 68.336 20.5969H68.9193V22.0688H72.2139V26.7031ZM72.4098 20.647C72.4098 20.7442 72.3901 20.8369 72.3506 20.925C72.3111 21.0101 72.2579 21.0845 72.1911 21.1483C72.1273 21.2121 72.0498 21.2637 71.9587 21.3032C71.8706 21.3397 71.7764 21.3579 71.6762 21.3579C71.579 21.3579 71.4878 21.3397 71.4028 21.3032C71.3177 21.2637 71.2433 21.2121 71.1795 21.1483C71.1157 21.0845 71.064 21.0101 71.0245 20.925C70.9881 20.8369 70.9699 20.7442 70.9699 20.647C70.9699 20.5468 70.9881 20.4541 71.0245 20.3691C71.064 20.281 71.1157 20.205 71.1795 20.1412C71.2433 20.0744 71.3177 20.0227 71.4028 19.9863C71.4878 19.9468 71.579 19.927 71.6762 19.927C71.7764 19.927 71.8706 19.9468 71.9587 19.9863C72.0498 20.0227 72.1273 20.0744 72.1911 20.1412C72.2579 20.205 72.3111 20.281 72.3506 20.3691C72.3901 20.4541 72.4098 20.5468 72.4098 20.647ZM76.3748 23.8277C76.3748 23.6819 76.3536 23.5452 76.311 23.4176C76.2715 23.287 76.2108 23.1731 76.1287 23.0759C76.0467 22.9786 75.9419 22.9027 75.8143 22.848C75.6898 22.7903 75.5439 22.7614 75.3769 22.7614C75.0518 22.7614 74.7951 22.8541 74.6067 23.0394C74.4214 23.2247 74.303 23.4875 74.2513 23.8277H76.3748ZM74.2285 24.5067C74.2468 24.7467 74.2893 24.9548 74.3561 25.131C74.423 25.3042 74.5111 25.4485 74.6204 25.5639C74.7298 25.6763 74.8589 25.7614 75.0078 25.8191C75.1596 25.8738 75.3267 25.9011 75.509 25.9011C75.6913 25.9011 75.8477 25.8798 75.9784 25.8373C76.112 25.7948 76.2275 25.7477 76.3247 25.6961C76.4249 25.6444 76.5115 25.5973 76.5844 25.5548C76.6604 25.5123 76.7333 25.491 76.8032 25.491C76.8973 25.491 76.9672 25.5259 77.0128 25.5958L77.3363 26.0059C77.2118 26.1517 77.072 26.2748 76.9171 26.375C76.7622 26.4722 76.5996 26.5512 76.4295 26.612C76.2624 26.6697 76.0908 26.7107 75.9146 26.735C75.7414 26.7593 75.5728 26.7715 75.4088 26.7715C75.0837 26.7715 74.7814 26.7183 74.5019 26.612C74.2225 26.5026 73.9794 26.3431 73.7728 26.1335C73.5663 25.9209 73.4037 25.6596 73.2853 25.3497C73.1668 25.0368 73.1075 24.6753 73.1075 24.2652C73.1075 23.9462 73.1592 23.647 73.2625 23.3675C73.3658 23.085 73.5131 22.8404 73.7045 22.6338C73.8989 22.4242 74.1344 22.2587 74.4108 22.1371C74.6903 22.0156 75.0047 21.9549 75.3541 21.9549C75.6488 21.9549 75.9206 22.0019 76.1698 22.0961C76.4189 22.1903 76.633 22.3285 76.8123 22.5108C76.9915 22.69 77.1313 22.9118 77.2315 23.1761C77.3348 23.4374 77.3864 23.7366 77.3864 24.0738C77.3864 24.2439 77.3682 24.3594 77.3318 24.4201C77.2953 24.4778 77.2254 24.5067 77.1221 24.5067H74.2285ZM79.2837 22.6019C79.3779 22.5078 79.4766 22.4212 79.5799 22.3422C79.6863 22.2602 79.7971 22.1918 79.9126 22.1371C80.0311 22.0794 80.1571 22.0354 80.2908 22.005C80.4245 21.9716 80.5703 21.9549 80.7283 21.9549C80.9835 21.9549 81.2098 21.9989 81.4072 22.087C81.6047 22.1721 81.7688 22.2936 81.8994 22.4516C82.0331 22.6065 82.1333 22.7933 82.2001 23.0121C82.27 23.2277 82.305 23.4662 82.305 23.7275V26.7031H81.1794V23.7275C81.1794 23.4419 81.1141 23.2217 80.9835 23.0667C80.8528 22.9088 80.6538 22.8298 80.3865 22.8298C80.1921 22.8298 80.0098 22.8738 79.8397 22.9619C79.6696 23.05 79.5085 23.17 79.3567 23.3219V26.7031H78.2311V22.0278H78.9192C79.065 22.0278 79.1607 22.0961 79.2063 22.2328L79.2837 22.6019ZM86.31 23.2217C86.1824 23.0667 86.0427 22.9574 85.8908 22.8936C85.7419 22.8298 85.5809 22.7979 85.4078 22.7979C85.2376 22.7979 85.0842 22.8298 84.9475 22.8936C84.8108 22.9574 84.6938 23.0546 84.5966 23.1852C84.4994 23.3128 84.425 23.4769 84.3733 23.6774C84.3217 23.8748 84.2959 24.1087 84.2959 24.3791C84.2959 24.6525 84.3171 24.8849 84.3597 25.0763C84.4052 25.2647 84.469 25.4196 84.5511 25.5411C84.6331 25.6596 84.7333 25.7462 84.8518 25.8009C84.9703 25.8525 85.1024 25.8783 85.2483 25.8783C85.4822 25.8783 85.6812 25.8297 85.8452 25.7325C86.0093 25.6353 86.1642 25.4971 86.31 25.3178V23.2217ZM87.4356 19.9316V26.7031H86.7475C86.5986 26.7031 86.5044 26.6348 86.465 26.4981L86.3693 26.0469C86.1809 26.2626 85.9637 26.4373 85.7176 26.571C85.4746 26.7046 85.1905 26.7715 84.8655 26.7715C84.6103 26.7715 84.3764 26.7183 84.1637 26.612C83.9511 26.5057 83.7673 26.3522 83.6123 26.1517C83.4605 25.9482 83.342 25.6976 83.2569 25.3999C83.1749 25.1021 83.1339 24.7619 83.1339 24.3791C83.1339 24.0328 83.181 23.7108 83.2751 23.4131C83.3693 23.1153 83.5045 22.8571 83.6807 22.6384C83.8569 22.4197 84.068 22.2495 84.3141 22.128C84.5602 22.0035 84.8366 21.9412 85.1435 21.9412C85.4047 21.9412 85.628 21.9822 85.8133 22.0642C85.9986 22.1462 86.1642 22.2571 86.31 22.3969V19.9316H87.4356ZM91.0162 24.7072C90.6912 24.7224 90.4177 24.7513 90.196 24.7938C89.9742 24.8333 89.7965 24.8849 89.6628 24.9487C89.5291 25.0125 89.4335 25.087 89.3757 25.172C89.318 25.2571 89.2892 25.3497 89.2892 25.45C89.2892 25.6474 89.3469 25.7887 89.4623 25.8738C89.5808 25.9588 89.7342 26.0014 89.9226 26.0014C90.1534 26.0014 90.3524 25.9604 90.5195 25.8783C90.6896 25.7933 90.8552 25.6657 91.0162 25.4956V24.7072ZM88.437 22.6794C88.9747 22.1873 89.6218 21.9412 90.3782 21.9412C90.6517 21.9412 90.8962 21.9868 91.1119 22.0779C91.3276 22.166 91.5099 22.2905 91.6587 22.4516C91.8076 22.6095 91.92 22.7994 91.9959 23.0212C92.0749 23.2429 92.1144 23.486 92.1144 23.7503V26.7031H91.604C91.4977 26.7031 91.4157 26.6879 91.358 26.6576C91.3003 26.6241 91.2547 26.5588 91.2213 26.4616L91.121 26.1244C91.0025 26.2307 90.8871 26.3249 90.7747 26.4069C90.6623 26.4859 90.5453 26.5527 90.4238 26.6074C90.3023 26.6621 90.1717 26.7031 90.0319 26.7305C89.8952 26.7608 89.7433 26.776 89.5762 26.776C89.3788 26.776 89.1965 26.7502 89.0294 26.6986C88.8623 26.6439 88.718 26.5634 88.5965 26.4571C88.475 26.3507 88.3808 26.2186 88.314 26.0606C88.2471 25.9026 88.2137 25.7188 88.2137 25.5092C88.2137 25.3907 88.2335 25.2738 88.273 25.1583C88.3125 25.0399 88.3763 24.9275 88.4644 24.8211C88.5555 24.7148 88.6725 24.6146 88.8152 24.5204C88.958 24.4262 89.1327 24.3442 89.3393 24.2743C89.5489 24.2044 89.7919 24.1482 90.0684 24.1057C90.3448 24.0601 90.6608 24.0328 91.0162 24.0237V23.7503C91.0162 23.4374 90.9494 23.2065 90.8157 23.0576C90.682 22.9057 90.4891 22.8298 90.237 22.8298C90.0547 22.8298 89.9028 22.851 89.7813 22.8936C89.6628 22.9361 89.558 22.9847 89.4669 23.0394C89.3757 23.091 89.2922 23.1381 89.2162 23.1807C89.1433 23.2232 89.0613 23.2445 88.9702 23.2445C88.8912 23.2445 88.8243 23.2247 88.7697 23.1852C88.715 23.1427 88.6709 23.0941 88.6375 23.0394L88.437 22.6794Z" fill="white"/>
<mask id="mask0_8031_12736" style="mask-type:luminance" maskUnits="userSpaceOnUse" x="0" y="0" width="119" height="17">
<path d="M118.156 0.957031H0.15625V16.3719H118.156V0.957031Z" fill="white"/>
</mask>
<g mask="url(#mask0_8031_12736)">
<path d="M7.84488 16.3721C6.81023 16.3804 5.78521 16.173 4.83523 15.7629C3.92318 15.3691 3.0961 14.8023 2.39976 14.0937C1.70415 13.3856 1.14747 12.5533 0.758582 11.64C0.355819 10.7001 0.150829 9.68728 0.156373 8.6647C0.15051 7.64321 0.354776 6.63143 0.756478 5.69222C1.14576 4.7778 1.70317 3.94455 2.39976 3.23571C3.09619 2.52726 3.92324 1.96042 4.83523 1.56649C5.78521 1.15646 6.81023 0.948969 7.84488 0.957271C8.8081 0.954763 9.76296 1.13607 10.6582 1.49148C11.5739 1.85717 12.4182 2.38087 13.1526 3.03871L10.1521 5.66418C9.49018 5.17187 8.68935 4.9019 7.86451 4.89301C7.36107 4.88845 6.8624 4.99071 6.4014 5.19306C5.96129 5.3865 5.56547 5.66804 5.23834 6.02031C4.91028 6.37374 4.649 6.78371 4.46718 7.23034C4.28031 7.68537 4.18501 8.17279 4.18676 8.6647C4.1837 9.16287 4.27899 9.65674 4.46718 10.118C4.6476 10.5624 4.9091 10.9694 5.23834 11.3182C5.56652 11.6644 5.95799 11.9445 6.39158 12.1434C6.84732 12.3523 7.34355 12.4581 7.84488 12.4532C8.4299 12.4568 9.00665 12.3149 9.52321 12.0403C10.0545 11.7546 10.5181 11.3579 10.8826 10.8772L13.9763 13.3898C13.2331 14.3153 12.2969 15.0675 11.2331 15.594C10.1803 16.1118 9.02164 16.3782 7.84838 16.3721" fill="white"/>
<path d="M15.7207 15.923V1.37109H19.7525V12.3223H27.4038V15.923H15.7207Z" fill="white"/>
<path d="M32.5798 1.37109H28.6602V15.923H32.5798V1.37109Z" fill="white"/>
<path d="M41.7882 16.3722C40.7536 16.3805 39.7286 16.173 38.7786 15.763C37.8658 15.3696 37.038 14.803 36.341 14.0944C35.6454 13.3863 35.0887 12.554 34.6998 11.6407C34.2982 10.7015 34.0939 9.68974 34.0997 8.66825C34.0939 7.64676 34.2981 6.63497 34.6998 5.69576C35.0888 4.78251 35.6455 3.95025 36.341 3.24206C37.0361 2.53166 37.8622 1.96267 38.7737 1.56653C39.7252 1.15583 40.7519 0.948325 41.7882 0.957311C42.7512 0.954893 43.7058 1.1362 44.6009 1.49152C45.5165 1.85721 46.3608 2.38091 47.0952 3.03875L44.0947 5.66422C43.4328 5.17191 42.632 4.90194 41.8072 4.89305C41.3037 4.88849 40.8051 4.99075 40.3441 5.1931C39.9041 5.38592 39.5083 5.66673 39.181 6.01825C38.8529 6.37168 38.5917 6.78165 38.4098 7.22828C38.223 7.68331 38.1277 8.17073 38.1294 8.66264C38.1264 9.1608 38.2217 9.65467 38.4098 10.1159C38.5903 10.5604 38.8518 10.9673 39.181 11.3161C39.5092 11.6623 39.9006 11.9424 40.3342 12.1413C40.79 12.3503 41.2862 12.4561 41.7875 12.4512C42.3726 12.4547 42.9493 12.3128 43.4659 12.0382C43.9971 11.7527 44.4607 11.3563 44.8252 10.8759L47.919 13.3885C47.1746 14.3145 46.2369 15.0667 45.1715 15.5926C44.1187 16.1105 42.9601 16.3768 41.7868 16.3708" fill="white"/>
<path d="M56.6014 8.25338L62.3585 15.9237H57.6327L53.6367 11.0289V15.9237H49.6406V1.37109H53.6367V6.26518L57.6327 1.37109H62.5457L56.6014 8.25338Z" fill="white"/>
<path d="M83.3613 15.9329V1.24219H94.614V4.93817H87.8839V6.82471H93.6494V10.3489H87.8839V15.9329H83.3613Z" fill="white"/>
<path d="M100.914 1.24219H96.2266V15.9329H100.914V1.24219Z" fill="white"/>
<path d="M107.669 15.9311H102.527L107.756 8.18577L102.958 1.24038H108.275L110.437 5.2259L112.52 1.23828H117.655L112.888 8.18366L118.158 15.929H112.69L110.21 11.6406L107.669 15.9311Z" fill="white"/>
<path d="M65.5996 1.24609V13.272C65.6022 13.9574 65.876 14.614 66.3611 15.0981C66.8462 15.5823 67.5032 15.8549 68.1886 15.8561H80.2104V1.24609H65.5996Z" fill="white"/>
<path d="M79.4922 15.173H68.649C68.6293 15.173 68.6104 15.173 68.5908 15.173C69.0689 14.7194 70.4549 13.4112 70.9562 12.9443C71.5514 12.3835 73.2325 12.3835 73.6202 12.3666C74.2116 12.4405 74.8107 12.3138 75.3217 12.007C76.3669 11.4952 77.7347 9.08429 77.8265 8.93706C77.9184 8.78984 78.2037 8.14557 77.9892 7.93105C77.7747 7.71652 77.3582 8.05233 77.3582 8.05233L75.4801 9.31073C75.4801 9.31073 74.8001 9.78044 74.2757 9.45865C73.7565 9.10246 73.3192 8.63975 72.9928 8.10135C72.6664 7.56294 72.4585 6.96118 72.3828 6.33614C72.3828 5.94775 72.4235 5.81315 72.678 5.61265C72.9324 5.41214 75.2501 4.20562 75.4633 4.09836C75.5048 4.07074 75.54 4.03458 75.5664 3.99228C75.5929 3.94998 75.61 3.90253 75.6166 3.85309C75.6232 3.80365 75.6192 3.75337 75.6049 3.7056C75.5905 3.65782 75.5662 3.61367 75.5334 3.57607C75.2388 3.50895 74.9374 3.47694 74.6353 3.48073C71.1258 3.56345 69.9859 5.03568 69.6915 5.55937C69.3837 6.10128 69.5204 7.54616 69.4503 8.14557C69.2616 8.82899 68.9068 9.45515 68.4176 9.96832C68.1603 10.3048 66.8199 11.6838 66.3145 12.2075V1.92578H79.4901L79.4922 15.173Z" fill="#FF6600"/>
</g>
</g>
<defs>
<clipPath id="clip0_8031_12736">
<rect width="118" height="27.9624" fill="white" transform="translate(0.158203 0.960938)"/>
</clipPath>
</defs>
</svg>
