<svg width="25" height="26" viewBox="0 0 25 26" fill="none" xmlns="http://www.w3.org/2000/svg">
<path d="M19.0314 6.40244C19.0314 9.93841 16.165 12.8049 12.629 12.8049C9.09303 12.8049 6.22656 9.93841 6.22656 6.40244C6.22656 2.86647 9.09303 0 12.629 0C16.165 0 19.0314 2.86647 19.0314 6.40244ZM8.20436 6.40244C8.20436 8.8461 10.1853 10.8271 12.629 10.8271C15.0727 10.8271 17.0536 8.8461 17.0536 6.40244C17.0536 3.95878 15.0727 1.9778 12.629 1.9778C10.1853 1.9778 8.20436 3.95878 8.20436 6.40244Z" fill="white"/>
<path fill-rule="evenodd" clip-rule="evenodd" d="M6.01554 16.0705C8.3428 14.6578 10.8391 14.3164 12.1181 14.3164C15.4358 14.3165 18.2297 15.1339 20.3049 16.8544C22.3898 18.5829 23.6236 21.1186 24.0124 24.3014C24.1075 25.0802 23.4982 25.763 22.7181 25.763H2.28392C1.49668 25.763 0.900589 25.0732 0.98921 24.308C1.48194 20.0535 3.63847 17.5134 6.01554 16.0705ZM3.21102 23.663H21.7897C21.3517 21.346 20.3728 19.6385 18.9646 18.471C17.3715 17.1503 15.1034 16.4165 12.1181 16.4164C11.1196 16.4164 9.02533 16.7001 7.10522 17.8656C5.39634 18.9029 3.78987 20.6547 3.21102 23.663Z" fill="white"/>
</svg>
