<svg width="20" height="20" viewBox="0 0 20 20" fill="none" xmlns="http://www.w3.org/2000/svg">
<g clip-path="url(#clip0_8107_12046)">
<path fill-rule="evenodd" clip-rule="evenodd" d="M9.74322 1.47145C9.75792 1.10391 10.0678 0.817872 10.4353 0.832574C12.9548 0.93335 18.1894 2.75982 19.1432 9.19763C19.1971 9.56149 18.9458 9.90017 18.582 9.95407C18.2181 10.008 17.8794 9.75671 17.8255 9.39284C16.997 3.80074 12.5038 2.24844 10.3821 2.16357C10.0146 2.14887 9.72852 1.839 9.74322 1.47145ZM4.58616 3.35233C4.41326 3.16709 4.12125 3.16205 3.94208 3.34123L2.2889 4.9944C2.20699 5.07631 2.16349 5.18545 2.1641 5.28777C2.19129 9.84835 4.24135 12.9698 6.82246 14.9662C9.42865 16.9819 12.5683 17.8412 14.6892 17.8333C14.772 17.8329 14.8703 17.7942 14.9538 17.7025L16.6426 15.8448C16.8156 15.6546 16.7932 15.3581 16.5937 15.196L13.879 12.9903C13.693 12.8392 13.4211 12.8613 13.2619 13.0404L12.5269 13.8672C11.8465 14.6327 10.6621 14.6675 9.93796 13.9433L5.80602 9.81137C5.05554 9.0609 5.12444 7.8246 5.95365 7.16215L6.82938 6.46255C7.03321 6.29971 7.05526 5.9978 6.87725 5.80707L4.58616 3.35233ZM3.00017 2.39932C3.71227 1.68722 4.87283 1.70722 5.55997 2.44344L7.85106 4.89818C8.55855 5.6562 8.47091 6.85609 7.6608 7.50328L6.78507 8.20288C6.57643 8.36956 6.5591 8.68063 6.74793 8.86946L10.8799 13.0014C11.0621 13.1836 11.3601 13.1749 11.5313 12.9823L12.2663 12.1554C12.899 11.4436 13.9799 11.3559 14.719 11.9565L17.4336 14.1621C18.2267 14.8065 18.3156 15.9848 17.6282 16.7409L15.9394 18.5985C15.6331 18.9354 15.1908 19.1634 14.6943 19.1653C12.2782 19.1744 8.84963 18.2181 6.0075 16.0198C3.14027 13.8022 0.861969 10.3114 0.832061 5.29571C0.829249 4.82395 1.02297 4.37652 1.34699 4.05249L3.00017 2.39932ZM9.74853 4.47322C9.79714 4.1086 10.1321 3.85244 10.4967 3.90105C11.2981 4.0079 12.4758 4.39792 13.4956 5.22827C14.534 6.07375 15.4037 7.37492 15.5288 9.25093C15.5533 9.61795 15.2756 9.93532 14.9085 9.95979C14.5415 9.98426 14.2241 9.70656 14.1997 9.33954C14.102 7.8739 13.4402 6.90091 12.6545 6.26121C11.8503 5.60639 10.9117 5.30023 10.3207 5.22143C9.95608 5.17282 9.69991 4.83783 9.74853 4.47322Z" fill="#FF6720"/>
</g>
<defs>
<clipPath id="clip0_8107_12046">
<rect width="20" height="20" fill="white"/>
</clipPath>
</defs>
</svg>
