<svg width="20" height="14" viewBox="0 0 20 14" fill="none" xmlns="http://www.w3.org/2000/svg">
<path fill-rule="evenodd" clip-rule="evenodd" d="M0.957278 1.79474C0.957278 1.06673 1.54745 0.476562 2.27546 0.476562H18.3674C19.0954 0.476562 19.6856 1.06673 19.6856 1.79474C19.6856 2.52276 19.0954 3.11292 18.3674 3.11292H2.27546C1.54745 3.11292 0.957278 2.52276 0.957278 1.79474ZM0.669922 6.46141C0.669922 5.7334 1.26009 5.14323 1.9881 5.14323H18.3674C19.0954 5.14323 19.6856 5.7334 19.6856 6.46141C19.6856 7.18942 19.0954 7.77959 18.3674 7.77959H1.9881C1.26009 7.77959 0.669922 7.18942 0.669922 6.46141ZM0.669922 11.7947C0.669922 11.0667 1.26009 10.4766 1.9881 10.4766H18.6548C19.3828 10.4766 19.9729 11.0667 19.9729 11.7947C19.9729 12.5228 19.3828 13.1129 18.6548 13.1129H1.9881C1.26009 13.1129 0.669922 12.5228 0.669922 11.7947Z" fill="#333333"/>
</svg>
